<svg width="28" height="20" viewBox="0 0 28 20" fill="none" xmlns="http://www.w3.org/2000/svg">
<mask id="path-1-outside-1_278_2507" maskUnits="userSpaceOnUse" x="8.50085" y="0.817139" width="19" height="18" fill="black">
<rect fill="white" x="8.50085" y="0.817139" width="19" height="18"/>
<path d="M17.0936 3.38159C17.4648 2.62949 18.5369 2.62949 18.9081 3.38159L20.4413 6.48901C20.5887 6.78767 20.8744 6.99483 21.204 7.04272L24.6327 7.54077C25.4625 7.66136 25.7944 8.68088 25.1942 9.26636L22.7128 11.6853C22.4744 11.9177 22.3656 12.2527 22.4218 12.5808L23.0067 15.9968C23.1485 16.8235 22.2813 17.4535 21.5389 17.0632L18.4716 15.4509C18.1769 15.296 17.8249 15.2961 17.5302 15.4509L14.4628 17.0632C13.7204 17.4535 12.8523 16.8234 12.994 15.9968C13.1909 14.8474 13.8845 13.8433 14.8897 13.2522L18.9677 10.8542C19.3609 10.6229 19.1309 10.0187 18.6835 10.1082L15.4785 10.7487C13.8422 11.0758 12.1499 10.575 10.9551 9.41024L10.8075 9.26636C10.2071 8.68097 10.5383 7.66153 11.368 7.54077L14.7977 7.04272C15.1272 6.99485 15.412 6.78753 15.5594 6.48901L17.0936 3.38159Z"/>
</mask>
<path d="M17.0936 3.38159C17.4648 2.62949 18.5369 2.62949 18.9081 3.38159L20.4413 6.48901C20.5887 6.78767 20.8744 6.99483 21.204 7.04272L24.6327 7.54077C25.4625 7.66136 25.7944 8.68088 25.1942 9.26636L22.7128 11.6853C22.4744 11.9177 22.3656 12.2527 22.4218 12.5808L23.0067 15.9968C23.1485 16.8235 22.2813 17.4535 21.5389 17.0632L18.4716 15.4509C18.1769 15.296 17.8249 15.2961 17.5302 15.4509L14.4628 17.0632C13.7204 17.4535 12.8523 16.8234 12.994 15.9968C13.1909 14.8474 13.8845 13.8433 14.8897 13.2522L18.9677 10.8542C19.3609 10.6229 19.1309 10.0187 18.6835 10.1082L15.4785 10.7487C13.8422 11.0758 12.1499 10.575 10.9551 9.41024L10.8075 9.26636C10.2071 8.68097 10.5383 7.66153 11.368 7.54077L14.7977 7.04272C15.1272 6.99485 15.412 6.78753 15.5594 6.48901L17.0936 3.38159Z" fill="#323232"/>
<path d="M17.0936 3.38159L18.4386 4.04564L18.4387 4.04544L17.0936 3.38159ZM18.9081 3.38159L20.2533 2.71788L20.2532 2.71774L18.9081 3.38159ZM20.4413 6.48901L19.0961 7.15272L19.0962 7.15288L20.4413 6.48901ZM21.204 7.04272L20.9883 8.52714L20.9884 8.52715L21.204 7.04272ZM24.6327 7.54077L24.8484 6.05636L24.8483 6.05635L24.6327 7.54077ZM25.1942 9.26636L26.2413 10.3405L26.2417 10.3401L25.1942 9.26636ZM22.7128 11.6853L23.7598 12.7594L23.7598 12.7594L22.7128 11.6853ZM22.4218 12.5808L20.9433 12.8339L20.9433 12.834L22.4218 12.5808ZM23.0067 15.9968L21.5282 16.25L21.5283 16.2504L23.0067 15.9968ZM21.5389 17.0632L22.237 15.7355L22.2368 15.7355L21.5389 17.0632ZM18.4716 15.4509L17.7735 16.7786L17.7737 16.7787L18.4716 15.4509ZM17.5302 15.4509L16.8325 14.123L16.8322 14.1232L17.5302 15.4509ZM14.4628 17.0632L13.7649 15.7355L13.7648 15.7355L14.4628 17.0632ZM12.994 15.9968L14.4724 16.2503L14.4725 16.2501L12.994 15.9968ZM18.9677 10.8542L19.728 12.1473L19.7282 12.1471L18.9677 10.8542ZM18.6835 10.1082L18.9775 11.5791L18.9776 11.579L18.6835 10.1082ZM10.8075 9.26636L9.76031 10.3403L9.76044 10.3404L10.8075 9.26636ZM11.368 7.54077L11.1525 6.05634L11.152 6.05641L11.368 7.54077ZM14.7977 7.04272L15.0133 8.52715L15.0134 8.52713L14.7977 7.04272ZM15.5594 6.48901L16.9044 7.15324L16.9045 7.15306L15.5594 6.48901ZM17.0936 3.38159L18.4387 4.04544C18.2597 4.40821 17.742 4.40821 17.563 4.04544L18.9081 3.38159L20.2532 2.71774C19.3318 0.850777 16.6699 0.850777 15.7485 2.71774L17.0936 3.38159ZM18.9081 3.38159L17.5629 4.0453L19.0961 7.15272L20.4413 6.48901L21.7865 5.8253L20.2533 2.71788L18.9081 3.38159ZM20.4413 6.48901L19.0962 7.15288C19.4626 7.89528 20.1713 8.40842 20.9883 8.52713L21.204 7.04272L21.4197 5.55831C21.5775 5.58125 21.7148 5.68005 21.7864 5.82515L20.4413 6.48901ZM21.204 7.04272L20.9884 8.52715L24.4171 9.02519L24.6327 7.54077L24.8483 6.05635L21.4196 5.5583L21.204 7.04272ZM24.6327 7.54077L24.417 9.02518C24.018 8.96721 23.8563 8.47599 24.1468 8.19264L25.1942 9.26636L26.2417 10.3401C27.7324 8.88578 26.9071 6.35551 24.8484 6.05636L24.6327 7.54077ZM25.1942 9.26636L24.1472 8.19226L21.6657 10.6112L22.7128 11.6853L23.7598 12.7594L26.2413 10.3405L25.1942 9.26636ZM22.7128 11.6853L21.6658 10.6112C21.0736 11.1883 20.8039 12.0197 20.9433 12.8339L22.4218 12.5808L23.9003 12.3277C23.9273 12.4856 23.8751 12.6471 23.7598 12.7594L22.7128 11.6853ZM22.4218 12.5808L20.9433 12.834L21.5282 16.25L23.0067 15.9968L24.4852 15.7437L23.9002 12.3276L22.4218 12.5808ZM23.0067 15.9968L21.5283 16.2504C21.4599 15.8517 21.8789 15.5473 22.237 15.7355L21.5389 17.0632L20.8409 18.3909C22.6837 19.3598 24.8371 17.7952 24.4851 15.7433L23.0067 15.9968ZM21.5389 17.0632L22.2368 15.7355L19.1695 14.1232L18.4716 15.4509L17.7737 16.7787L20.841 18.391L21.5389 17.0632ZM18.4716 15.4509L19.1696 14.1232C18.4376 13.7384 17.5637 13.7389 16.8325 14.123L17.5302 15.4509L18.2278 16.7788C18.086 16.8533 17.9161 16.8536 17.7735 16.7786L18.4716 15.4509ZM17.5302 15.4509L16.8322 14.1232L13.7649 15.7355L14.4628 17.0632L15.1607 18.391L18.2281 16.7787L17.5302 15.4509ZM14.4628 17.0632L13.7648 15.7355C14.1214 15.548 14.5411 15.85 14.4724 16.2503L12.994 15.9968L11.5156 15.7434C11.1635 17.7968 13.3194 19.359 15.1608 18.3909L14.4628 17.0632ZM14.8897 13.2522L15.6501 14.5452L19.728 12.1473L18.9677 10.8542L18.2073 9.56123L14.1294 11.9592L14.8897 13.2522ZM18.9677 10.8542L19.7282 12.1471C21.5715 11.0628 20.5029 8.21456 18.3893 8.63728L18.6835 10.1082L18.9776 11.579C17.7588 11.8228 17.1503 10.183 18.2071 9.56135L18.9677 10.8542ZM18.6835 10.1082L18.3895 8.63725L15.1845 9.27781L15.4785 10.7487L15.7725 12.2196L18.9775 11.5791L18.6835 10.1082ZM10.9551 9.41024L12.0021 8.33615L11.8546 8.19227L10.8075 9.26636L9.76044 10.3404L9.90803 10.4843L10.9551 9.41024ZM10.8075 9.26636L11.8547 8.19239C12.1441 8.47464 11.9845 8.96686 11.5841 9.02514L11.368 7.54077L11.152 6.05641C9.09205 6.3562 8.27012 8.8873 9.76031 10.3403L10.8075 9.26636ZM11.368 7.54077L11.5836 9.0252L15.0133 8.52715L14.7977 7.04272L14.5822 5.55829L11.1525 6.05634L11.368 7.54077ZM14.7977 7.04272L15.0134 8.52713C15.8326 8.4081 16.539 7.89312 16.9044 7.15324L15.5594 6.48901L14.2145 5.82479C14.2851 5.68195 14.4218 5.58159 14.582 5.55831L14.7977 7.04272ZM15.5594 6.48901L16.9045 7.15306L18.4386 4.04564L17.0936 3.38159L15.7486 2.71754L14.2144 5.82496L15.5594 6.48901ZM15.4785 10.7487L15.1845 9.27781C14.0333 9.50789 12.8428 9.1556 12.0021 8.33615L10.9551 9.41024L9.90803 10.4843C11.4571 11.9944 13.6511 12.6436 15.7725 12.2196L15.4785 10.7487ZM12.994 15.9968L14.4725 16.2501C14.5948 15.5362 15.0256 14.9124 15.6501 14.5452L14.8897 13.2522L14.1294 11.9592C12.7434 12.7742 11.7871 14.1587 11.5156 15.7435L12.994 15.9968Z" fill="#323232" mask="url(#path-1-outside-1_278_2507)"/>
<mask id="path-3-outside-2_278_2507" maskUnits="userSpaceOnUse" x="9.50085" y="1.81714" width="17" height="16" fill="black">
<rect fill="white" x="9.50085" y="1.81714" width="17" height="16"/>
<path d="M17.0936 3.38159C17.4648 2.62949 18.5369 2.62949 18.9081 3.38159L20.4413 6.48901C20.5887 6.78767 20.8744 6.99483 21.204 7.04272L24.6327 7.54077C25.4625 7.66136 25.7944 8.68088 25.1942 9.26636L22.7128 11.6853C22.4744 11.9177 22.3656 12.2527 22.4218 12.5808L23.0067 15.9968C23.1485 16.8235 22.2813 17.4535 21.5389 17.0632L18.4716 15.4509C18.1769 15.296 17.8249 15.2961 17.5302 15.4509L14.4628 17.0632C13.7204 17.4535 12.8523 16.8234 12.994 15.9968C13.1909 14.8474 13.8845 13.8433 14.8897 13.2522L18.9677 10.8542C19.3609 10.6229 19.1309 10.0187 18.6835 10.1082L15.4785 10.7487C13.8422 11.0758 12.1499 10.575 10.9551 9.41024L10.8075 9.26636C10.2071 8.68097 10.5383 7.66153 11.368 7.54077L14.7977 7.04272C15.1272 6.99485 15.412 6.78753 15.5594 6.48901L17.0936 3.38159Z"/>
</mask>
<path d="M17.0936 3.38159C17.4648 2.62949 18.5369 2.62949 18.9081 3.38159L20.4413 6.48901C20.5887 6.78767 20.8744 6.99483 21.204 7.04272L24.6327 7.54077C25.4625 7.66136 25.7944 8.68088 25.1942 9.26636L22.7128 11.6853C22.4744 11.9177 22.3656 12.2527 22.4218 12.5808L23.0067 15.9968C23.1485 16.8235 22.2813 17.4535 21.5389 17.0632L18.4716 15.4509C18.1769 15.296 17.8249 15.2961 17.5302 15.4509L14.4628 17.0632C13.7204 17.4535 12.8523 16.8234 12.994 15.9968C13.1909 14.8474 13.8845 13.8433 14.8897 13.2522L18.9677 10.8542C19.3609 10.6229 19.1309 10.0187 18.6835 10.1082L15.4785 10.7487C13.8422 11.0758 12.1499 10.575 10.9551 9.41024L10.8075 9.26636C10.2071 8.68097 10.5383 7.66153 11.368 7.54077L14.7977 7.04272C15.1272 6.99485 15.412 6.78753 15.5594 6.48901L17.0936 3.38159Z" fill="url(#paint0_linear_278_2507)"/>
<path d="M17.0936 3.38159L17.542 3.60294L17.542 3.60287L17.0936 3.38159ZM18.9081 3.38159L19.3565 3.16036L19.3564 3.16031L18.9081 3.38159ZM20.4413 6.48901L19.9929 6.71025L19.9929 6.7103L20.4413 6.48901ZM21.204 7.04272L21.1321 7.53753L21.1321 7.53753L21.204 7.04272ZM24.6327 7.54077L24.7046 7.04597L24.7046 7.04596L24.6327 7.54077ZM25.1942 9.26636L25.5432 9.62439L25.5434 9.62426L25.1942 9.26636ZM22.7128 11.6853L23.0618 12.0433L23.0618 12.0433L22.7128 11.6853ZM22.4218 12.5808L21.9289 12.6652L21.9289 12.6652L22.4218 12.5808ZM23.0067 15.9968L22.5139 16.0812L22.5139 16.0813L23.0067 15.9968ZM21.5389 17.0632L21.7716 16.6207L21.7716 16.6206L21.5389 17.0632ZM18.4716 15.4509L18.2389 15.8935L18.2389 15.8935L18.4716 15.4509ZM17.5302 15.4509L17.2976 15.0083L17.2975 15.0083L17.5302 15.4509ZM14.4628 17.0632L14.2301 16.6206L14.2301 16.6207L14.4628 17.0632ZM12.994 15.9968L13.4868 16.0813L13.4868 16.0813L12.994 15.9968ZM18.9677 10.8542L19.2211 11.2853L19.2212 11.2852L18.9677 10.8542ZM18.6835 10.1082L18.7815 10.5985L18.7815 10.5984L18.6835 10.1082ZM10.8075 9.26636L10.4584 9.62435L10.4585 9.62439L10.8075 9.26636ZM11.368 7.54077L11.2962 7.04596L11.296 7.04598L11.368 7.54077ZM14.7977 7.04272L14.8696 7.53753L14.8696 7.53753L14.7977 7.04272ZM15.5594 6.48901L16.0078 6.71042L16.0078 6.71036L15.5594 6.48901ZM17.0936 3.38159L17.542 3.60287C17.7298 3.2224 18.2719 3.2224 18.4597 3.60287L18.9081 3.38159L19.3564 3.16031C18.8019 2.03659 17.1998 2.03659 16.6453 3.16031L17.0936 3.38159ZM18.9081 3.38159L18.4597 3.60283L19.9929 6.71025L20.4413 6.48901L20.8897 6.26778L19.3565 3.16036L18.9081 3.38159ZM20.4413 6.48901L19.9929 6.7103C20.2133 7.15687 20.64 7.46603 21.1321 7.53753L21.204 7.04272L21.2759 6.54792C21.1088 6.52364 20.964 6.41846 20.8896 6.26772L20.4413 6.48901ZM21.204 7.04272L21.1321 7.53753L24.5608 8.03558L24.6327 7.54077L24.7046 7.04596L21.2759 6.54792L21.204 7.04272ZM24.6327 7.54077L24.5608 8.03557C24.981 8.09664 25.1484 8.61258 24.8451 8.90845L25.1942 9.26636L25.5434 9.62426C26.4404 8.74918 25.9441 7.22607 24.7046 7.04597L24.6327 7.54077ZM25.1942 9.26636L24.8452 8.90832L22.3638 11.3273L22.7128 11.6853L23.0618 12.0433L25.5432 9.62439L25.1942 9.26636ZM22.7128 11.6853L22.3638 11.3273C22.0075 11.6746 21.845 12.175 21.9289 12.6652L22.4218 12.5808L22.9146 12.4965C22.8861 12.3303 22.9413 12.1608 23.0618 12.0433L22.7128 11.6853ZM22.4218 12.5808L21.9289 12.6652L22.5139 16.0812L23.0067 15.9968L23.4995 15.9124L22.9146 12.4964L22.4218 12.5808ZM23.0067 15.9968L22.5139 16.0813C22.5856 16.4995 22.1472 16.8181 21.7716 16.6207L21.5389 17.0632L21.3063 17.5058C22.4155 18.0889 23.7114 17.1474 23.4995 15.9123L23.0067 15.9968ZM21.5389 17.0632L21.7716 16.6206L18.7042 15.0083L18.4716 15.4509L18.2389 15.8935L21.3063 17.5058L21.5389 17.0632ZM18.4716 15.4509L18.7042 15.0084C18.2638 14.7768 17.7378 14.777 17.2976 15.0083L17.5302 15.4509L17.7627 15.8936C17.9119 15.8152 18.09 15.8152 18.2389 15.8935L18.4716 15.4509ZM17.5302 15.4509L17.2975 15.0083L14.2301 16.6206L14.4628 17.0632L14.6954 17.5058L17.7628 15.8935L17.5302 15.4509ZM14.4628 17.0632L14.2301 16.6207C13.8541 16.8183 13.4152 16.499 13.4868 16.0813L12.994 15.9968L12.5012 15.9123C12.2894 17.1479 13.5868 18.0887 14.6954 17.5058L14.4628 17.0632ZM14.8897 13.2522L15.1432 13.6832L19.2211 11.2853L18.9677 10.8542L18.7142 10.4232L14.6363 12.8212L14.8897 13.2522ZM18.9677 10.8542L19.2212 11.2852C20.0978 10.7696 19.5882 9.4173 18.5854 9.61786L18.6835 10.1082L18.7815 10.5984C18.772 10.6003 18.7423 10.6 18.712 10.5816C18.6875 10.5667 18.6775 10.5491 18.6735 10.5388C18.6696 10.5285 18.6655 10.5089 18.6738 10.4818C18.684 10.4481 18.7058 10.4282 18.7141 10.4233L18.9677 10.8542ZM18.6835 10.1082L18.5855 9.61785L15.3805 10.2584L15.4785 10.7487L15.5765 11.239L18.7815 10.5985L18.6835 10.1082ZM10.9551 9.41024L11.3041 9.05221L11.1565 8.90833L10.8075 9.26636L10.4585 9.62439L10.6061 9.76827L10.9551 9.41024ZM10.8075 9.26636L11.1566 8.90837C10.8528 8.61219 11.0204 8.09664 11.44 8.03556L11.368 7.54077L11.296 7.04598C10.0562 7.22642 9.56146 8.74974 10.4584 9.62435L10.8075 9.26636ZM11.368 7.54077L11.4399 8.03558L14.8696 7.53753L14.7977 7.04272L14.7259 6.54791L11.2962 7.04596L11.368 7.54077ZM14.7977 7.04272L14.8696 7.53753C15.3624 7.46593 15.7877 7.15606 16.0078 6.71042L15.5594 6.48901L15.1111 6.2676C15.0364 6.41901 14.8921 6.52376 14.7258 6.54792L14.7977 7.04272ZM15.5594 6.48901L16.0078 6.71036L17.542 3.60294L17.0936 3.38159L16.6453 3.16024L15.1111 6.26766L15.5594 6.48901ZM15.4785 10.7487L15.3805 10.2584C13.9059 10.5531 12.3809 10.1019 11.3041 9.05221L10.9551 9.41024L10.6061 9.76827C11.919 11.0481 13.7785 11.5984 15.5765 11.239L15.4785 10.7487ZM12.994 15.9968L13.4868 16.0813C13.6589 15.077 14.2649 14.1997 15.1432 13.6832L14.8897 13.2522L14.6363 12.8212C13.5041 13.4869 12.723 14.6179 12.5012 15.9124L12.994 15.9968Z" fill="#D88835" mask="url(#path-3-outside-2_278_2507)"/>
<mask id="path-5-outside-3_278_2507" maskUnits="userSpaceOnUse" x="4.50085" y="0.817139" width="19" height="18" fill="black">
<rect fill="white" x="4.50085" y="0.817139" width="19" height="18"/>
<path d="M13.0936 3.38159C13.4648 2.62949 14.5369 2.62949 14.9081 3.38159L16.4413 6.48901C16.5887 6.78767 16.8744 6.99483 17.204 7.04272L20.6327 7.54077C21.4625 7.66136 21.7944 8.68088 21.1942 9.26636L18.7128 11.6853C18.4744 11.9177 18.3656 12.2527 18.4218 12.5808L19.0067 15.9968C19.1485 16.8235 18.2813 17.4535 17.5389 17.0632L14.4716 15.4509C14.1769 15.296 13.8249 15.2961 13.5302 15.4509L10.4628 17.0632C9.72043 17.4535 8.85231 16.8234 8.99402 15.9968C9.19095 14.8474 9.88451 13.8433 10.8897 13.2522L14.9677 10.8542C15.3609 10.6229 15.1309 10.0187 14.6835 10.1082L11.4785 10.7487C9.84221 11.0758 8.14992 10.575 6.95509 9.41024L6.8075 9.26636C6.20713 8.68097 6.53828 7.66153 7.36804 7.54077L10.7977 7.04272C11.1272 6.99485 11.412 6.78753 11.5594 6.48901L13.0936 3.38159Z"/>
</mask>
<path d="M13.0936 3.38159C13.4648 2.62949 14.5369 2.62949 14.9081 3.38159L16.4413 6.48901C16.5887 6.78767 16.8744 6.99483 17.204 7.04272L20.6327 7.54077C21.4625 7.66136 21.7944 8.68088 21.1942 9.26636L18.7128 11.6853C18.4744 11.9177 18.3656 12.2527 18.4218 12.5808L19.0067 15.9968C19.1485 16.8235 18.2813 17.4535 17.5389 17.0632L14.4716 15.4509C14.1769 15.296 13.8249 15.2961 13.5302 15.4509L10.4628 17.0632C9.72043 17.4535 8.85231 16.8234 8.99402 15.9968C9.19095 14.8474 9.88451 13.8433 10.8897 13.2522L14.9677 10.8542C15.3609 10.6229 15.1309 10.0187 14.6835 10.1082L11.4785 10.7487C9.84221 11.0758 8.14992 10.575 6.95509 9.41024L6.8075 9.26636C6.20713 8.68097 6.53828 7.66153 7.36804 7.54077L10.7977 7.04272C11.1272 6.99485 11.412 6.78753 11.5594 6.48901L13.0936 3.38159Z" fill="#323232"/>
<path d="M13.0936 3.38159L14.4386 4.04564L14.4387 4.04544L13.0936 3.38159ZM14.9081 3.38159L16.2533 2.71788L16.2532 2.71774L14.9081 3.38159ZM16.4413 6.48901L15.0961 7.15272L15.0962 7.15288L16.4413 6.48901ZM17.204 7.04272L16.9883 8.52714L16.9884 8.52715L17.204 7.04272ZM20.6327 7.54077L20.8484 6.05636L20.8483 6.05635L20.6327 7.54077ZM21.1942 9.26636L22.2413 10.3405L22.2417 10.3401L21.1942 9.26636ZM18.7128 11.6853L19.7598 12.7594L19.7598 12.7594L18.7128 11.6853ZM18.4218 12.5808L16.9433 12.8339L16.9433 12.834L18.4218 12.5808ZM19.0067 15.9968L17.5282 16.25L17.5283 16.2504L19.0067 15.9968ZM17.5389 17.0632L18.237 15.7355L18.2368 15.7355L17.5389 17.0632ZM14.4716 15.4509L13.7735 16.7786L13.7737 16.7787L14.4716 15.4509ZM13.5302 15.4509L12.8325 14.123L12.8322 14.1232L13.5302 15.4509ZM10.4628 17.0632L9.76486 15.7355L9.76476 15.7355L10.4628 17.0632ZM8.99402 15.9968L10.4724 16.2503L10.4725 16.2501L8.99402 15.9968ZM14.9677 10.8542L15.728 12.1473L15.7282 12.1471L14.9677 10.8542ZM14.6835 10.1082L14.9775 11.5791L14.9776 11.579L14.6835 10.1082ZM6.8075 9.26636L5.76031 10.3403L5.76044 10.3404L6.8075 9.26636ZM7.36804 7.54077L7.15248 6.05634L7.15202 6.05641L7.36804 7.54077ZM10.7977 7.04272L11.0133 8.52715L11.0134 8.52713L10.7977 7.04272ZM11.5594 6.48901L12.9044 7.15324L12.9045 7.15306L11.5594 6.48901ZM13.0936 3.38159L14.4387 4.04544C14.2597 4.40821 13.742 4.40821 13.563 4.04544L14.9081 3.38159L16.2532 2.71774C15.3318 0.850777 12.6699 0.850777 11.7485 2.71774L13.0936 3.38159ZM14.9081 3.38159L13.5629 4.0453L15.0961 7.15272L16.4413 6.48901L17.7865 5.8253L16.2533 2.71788L14.9081 3.38159ZM16.4413 6.48901L15.0962 7.15288C15.4626 7.89528 16.1713 8.40842 16.9883 8.52713L17.204 7.04272L17.4197 5.55831C17.5775 5.58125 17.7148 5.68005 17.7864 5.82515L16.4413 6.48901ZM17.204 7.04272L16.9884 8.52715L20.4171 9.02519L20.6327 7.54077L20.8483 6.05635L17.4196 5.5583L17.204 7.04272ZM20.6327 7.54077L20.417 9.02518C20.018 8.96721 19.8563 8.47599 20.1468 8.19264L21.1942 9.26636L22.2417 10.3401C23.7324 8.88578 22.9071 6.35551 20.8484 6.05636L20.6327 7.54077ZM21.1942 9.26636L20.1472 8.19226L17.6657 10.6112L18.7128 11.6853L19.7598 12.7594L22.2413 10.3405L21.1942 9.26636ZM18.7128 11.6853L17.6658 10.6112C17.0736 11.1883 16.8039 12.0197 16.9433 12.8339L18.4218 12.5808L19.9003 12.3277C19.9273 12.4856 19.8751 12.6471 19.7598 12.7594L18.7128 11.6853ZM18.4218 12.5808L16.9433 12.834L17.5282 16.25L19.0067 15.9968L20.4852 15.7437L19.9002 12.3276L18.4218 12.5808ZM19.0067 15.9968L17.5283 16.2504C17.4599 15.8517 17.8789 15.5473 18.237 15.7355L17.5389 17.0632L16.8409 18.3909C18.6837 19.3598 20.8371 17.7952 20.4851 15.7433L19.0067 15.9968ZM17.5389 17.0632L18.2368 15.7355L15.1695 14.1232L14.4716 15.4509L13.7737 16.7787L16.841 18.391L17.5389 17.0632ZM14.4716 15.4509L15.1696 14.1232C14.4376 13.7384 13.5637 13.7389 12.8325 14.123L13.5302 15.4509L14.2278 16.7788C14.086 16.8533 13.9161 16.8536 13.7735 16.7786L14.4716 15.4509ZM13.5302 15.4509L12.8322 14.1232L9.76486 15.7355L10.4628 17.0632L11.1607 18.391L14.2281 16.7787L13.5302 15.4509ZM10.4628 17.0632L9.76476 15.7355C10.1214 15.548 10.5411 15.85 10.4724 16.2503L8.99402 15.9968L7.51559 15.7434C7.16354 17.7968 9.31941 19.359 11.1608 18.3909L10.4628 17.0632ZM10.8897 13.2522L11.6501 14.5452L15.728 12.1473L14.9677 10.8542L14.2073 9.56123L10.1294 11.9592L10.8897 13.2522ZM14.9677 10.8542L15.7282 12.1471C17.5715 11.0628 16.5029 8.21456 14.3893 8.63728L14.6835 10.1082L14.9776 11.579C13.7588 11.8228 13.1503 10.183 14.2071 9.56135L14.9677 10.8542ZM14.6835 10.1082L14.3895 8.63725L11.1845 9.27781L11.4785 10.7487L11.7725 12.2196L14.9775 11.5791L14.6835 10.1082ZM6.95509 9.41024L8.00215 8.33615L7.85455 8.19227L6.8075 9.26636L5.76044 10.3404L5.90803 10.4843L6.95509 9.41024ZM6.8075 9.26636L7.85468 8.19239C8.14414 8.47464 7.98451 8.96686 7.58406 9.02514L7.36804 7.54077L7.15202 6.05641C5.09205 6.3562 4.27012 8.8873 5.76031 10.3403L6.8075 9.26636ZM7.36804 7.54077L7.58361 9.0252L11.0133 8.52715L10.7977 7.04272L10.5822 5.55829L7.15248 6.05634L7.36804 7.54077ZM10.7977 7.04272L11.0134 8.52713C11.8326 8.4081 12.539 7.89312 12.9044 7.15324L11.5594 6.48901L10.2145 5.82479C10.2851 5.68195 10.4218 5.58159 10.582 5.55831L10.7977 7.04272ZM11.5594 6.48901L12.9045 7.15306L14.4386 4.04564L13.0936 3.38159L11.7486 2.71754L10.2144 5.82496L11.5594 6.48901ZM11.4785 10.7487L11.1845 9.27781C10.0333 9.50789 8.84275 9.1556 8.00215 8.33615L6.95509 9.41024L5.90803 10.4843C7.45709 11.9944 9.65109 12.6436 11.7725 12.2196L11.4785 10.7487ZM8.99402 15.9968L10.4725 16.2501C10.5948 15.5362 11.0256 14.9124 11.6501 14.5452L10.8897 13.2522L10.1294 11.9592C8.74338 12.7742 7.78709 14.1587 7.51556 15.7435L8.99402 15.9968Z" fill="#323232" mask="url(#path-5-outside-3_278_2507)"/>
<mask id="path-7-outside-4_278_2507" maskUnits="userSpaceOnUse" x="5.50085" y="1.81714" width="17" height="16" fill="black">
<rect fill="white" x="5.50085" y="1.81714" width="17" height="16"/>
<path d="M13.0936 3.38159C13.4648 2.62949 14.5369 2.62949 14.9081 3.38159L16.4413 6.48901C16.5887 6.78767 16.8744 6.99483 17.204 7.04272L20.6327 7.54077C21.4625 7.66136 21.7944 8.68088 21.1942 9.26636L18.7128 11.6853C18.4744 11.9177 18.3656 12.2527 18.4218 12.5808L19.0067 15.9968C19.1485 16.8235 18.2813 17.4535 17.5389 17.0632L14.4716 15.4509C14.1769 15.296 13.8249 15.2961 13.5302 15.4509L10.4628 17.0632C9.72043 17.4535 8.85231 16.8234 8.99402 15.9968C9.19095 14.8474 9.88451 13.8433 10.8897 13.2522L14.9677 10.8542C15.3609 10.6229 15.1309 10.0187 14.6835 10.1082L11.4785 10.7487C9.84221 11.0758 8.14992 10.575 6.95509 9.41024L6.8075 9.26636C6.20713 8.68097 6.53828 7.66153 7.36804 7.54077L10.7977 7.04272C11.1272 6.99485 11.412 6.78753 11.5594 6.48901L13.0936 3.38159Z"/>
</mask>
<path d="M13.0936 3.38159C13.4648 2.62949 14.5369 2.62949 14.9081 3.38159L16.4413 6.48901C16.5887 6.78767 16.8744 6.99483 17.204 7.04272L20.6327 7.54077C21.4625 7.66136 21.7944 8.68088 21.1942 9.26636L18.7128 11.6853C18.4744 11.9177 18.3656 12.2527 18.4218 12.5808L19.0067 15.9968C19.1485 16.8235 18.2813 17.4535 17.5389 17.0632L14.4716 15.4509C14.1769 15.296 13.8249 15.2961 13.5302 15.4509L10.4628 17.0632C9.72043 17.4535 8.85231 16.8234 8.99402 15.9968C9.19095 14.8474 9.88451 13.8433 10.8897 13.2522L14.9677 10.8542C15.3609 10.6229 15.1309 10.0187 14.6835 10.1082L11.4785 10.7487C9.84221 11.0758 8.14992 10.575 6.95509 9.41024L6.8075 9.26636C6.20713 8.68097 6.53828 7.66153 7.36804 7.54077L10.7977 7.04272C11.1272 6.99485 11.412 6.78753 11.5594 6.48901L13.0936 3.38159Z" fill="url(#paint1_linear_278_2507)"/>
<path d="M13.0936 3.38159L13.542 3.60294L13.542 3.60287L13.0936 3.38159ZM14.9081 3.38159L15.3565 3.16036L15.3564 3.16031L14.9081 3.38159ZM16.4413 6.48901L15.9929 6.71025L15.9929 6.7103L16.4413 6.48901ZM17.204 7.04272L17.1321 7.53753L17.1321 7.53753L17.204 7.04272ZM20.6327 7.54077L20.7046 7.04597L20.7046 7.04596L20.6327 7.54077ZM21.1942 9.26636L21.5432 9.62439L21.5434 9.62426L21.1942 9.26636ZM18.7128 11.6853L19.0618 12.0433L19.0618 12.0433L18.7128 11.6853ZM18.4218 12.5808L17.9289 12.6652L17.9289 12.6652L18.4218 12.5808ZM19.0067 15.9968L18.5139 16.0812L18.5139 16.0813L19.0067 15.9968ZM17.5389 17.0632L17.7716 16.6207L17.7716 16.6206L17.5389 17.0632ZM14.4716 15.4509L14.2389 15.8935L14.2389 15.8935L14.4716 15.4509ZM13.5302 15.4509L13.2976 15.0083L13.2975 15.0083L13.5302 15.4509ZM10.4628 17.0632L10.2301 16.6206L10.2301 16.6207L10.4628 17.0632ZM8.99402 15.9968L9.48683 16.0813L9.48684 16.0813L8.99402 15.9968ZM14.9677 10.8542L15.2211 11.2853L15.2212 11.2852L14.9677 10.8542ZM14.6835 10.1082L14.7815 10.5985L14.7815 10.5984L14.6835 10.1082ZM6.8075 9.26636L6.45843 9.62435L6.45848 9.62439L6.8075 9.26636ZM7.36804 7.54077L7.29619 7.04596L7.29604 7.04598L7.36804 7.54077ZM10.7977 7.04272L10.8696 7.53753L10.8696 7.53753L10.7977 7.04272ZM11.5594 6.48901L12.0078 6.71042L12.0078 6.71036L11.5594 6.48901ZM13.0936 3.38159L13.542 3.60287C13.7298 3.2224 14.2719 3.2224 14.4597 3.60287L14.9081 3.38159L15.3564 3.16031C14.8019 2.03659 13.1998 2.03659 12.6453 3.16031L13.0936 3.38159ZM14.9081 3.38159L14.4597 3.60283L15.9929 6.71025L16.4413 6.48901L16.8897 6.26778L15.3565 3.16036L14.9081 3.38159ZM16.4413 6.48901L15.9929 6.7103C16.2133 7.15687 16.64 7.46603 17.1321 7.53753L17.204 7.04272L17.2759 6.54792C17.1088 6.52364 16.964 6.41846 16.8896 6.26772L16.4413 6.48901ZM17.204 7.04272L17.1321 7.53753L20.5608 8.03558L20.6327 7.54077L20.7046 7.04596L17.2759 6.54792L17.204 7.04272ZM20.6327 7.54077L20.5608 8.03557C20.981 8.09664 21.1484 8.61258 20.8451 8.90845L21.1942 9.26636L21.5434 9.62426C22.4404 8.74918 21.9441 7.22607 20.7046 7.04597L20.6327 7.54077ZM21.1942 9.26636L20.8452 8.90832L18.3638 11.3273L18.7128 11.6853L19.0618 12.0433L21.5432 9.62439L21.1942 9.26636ZM18.7128 11.6853L18.3638 11.3273C18.0075 11.6746 17.845 12.175 17.9289 12.6652L18.4218 12.5808L18.9146 12.4965C18.8861 12.3303 18.9413 12.1608 19.0618 12.0433L18.7128 11.6853ZM18.4218 12.5808L17.9289 12.6652L18.5139 16.0812L19.0067 15.9968L19.4995 15.9124L18.9146 12.4964L18.4218 12.5808ZM19.0067 15.9968L18.5139 16.0813C18.5856 16.4995 18.1472 16.8181 17.7716 16.6207L17.5389 17.0632L17.3063 17.5058C18.4155 18.0889 19.7114 17.1474 19.4995 15.9123L19.0067 15.9968ZM17.5389 17.0632L17.7716 16.6206L14.7042 15.0083L14.4716 15.4509L14.2389 15.8935L17.3063 17.5058L17.5389 17.0632ZM14.4716 15.4509L14.7042 15.0084C14.2638 14.7768 13.7378 14.777 13.2976 15.0083L13.5302 15.4509L13.7627 15.8936C13.9119 15.8152 14.09 15.8152 14.2389 15.8935L14.4716 15.4509ZM13.5302 15.4509L13.2975 15.0083L10.2301 16.6206L10.4628 17.0632L10.6954 17.5058L13.7628 15.8935L13.5302 15.4509ZM10.4628 17.0632L10.2301 16.6207C9.8541 16.8183 9.41523 16.499 9.48683 16.0813L8.99402 15.9968L8.50121 15.9123C8.28938 17.1479 9.58675 18.0887 10.6954 17.5058L10.4628 17.0632ZM10.8897 13.2522L11.1432 13.6832L15.2211 11.2853L14.9677 10.8542L14.7142 10.4232L10.6363 12.8212L10.8897 13.2522ZM14.9677 10.8542L15.2212 11.2852C16.0978 10.7696 15.5882 9.4173 14.5854 9.61786L14.6835 10.1082L14.7815 10.5984C14.772 10.6003 14.7423 10.6 14.712 10.5816C14.6875 10.5667 14.6775 10.5491 14.6735 10.5388C14.6696 10.5285 14.6655 10.5089 14.6738 10.4818C14.684 10.4481 14.7058 10.4282 14.7141 10.4233L14.9677 10.8542ZM14.6835 10.1082L14.5855 9.61785L11.3805 10.2584L11.4785 10.7487L11.5765 11.239L14.7815 10.5985L14.6835 10.1082ZM6.95509 9.41024L7.30411 9.05221L7.15651 8.90833L6.8075 9.26636L6.45848 9.62439L6.60607 9.76827L6.95509 9.41024ZM6.8075 9.26636L7.15656 8.90837C6.8528 8.61219 7.02036 8.09664 7.44005 8.03556L7.36804 7.54077L7.29604 7.04598C6.0562 7.22642 5.56146 8.74974 6.45843 9.62435L6.8075 9.26636ZM7.36804 7.54077L7.4399 8.03558L10.8696 7.53753L10.7977 7.04272L10.7259 6.54791L7.29619 7.04596L7.36804 7.54077ZM10.7977 7.04272L10.8696 7.53753C11.3624 7.46593 11.7877 7.15606 12.0078 6.71042L11.5594 6.48901L11.1111 6.2676C11.0364 6.41901 10.8921 6.52376 10.7258 6.54792L10.7977 7.04272ZM11.5594 6.48901L12.0078 6.71036L13.542 3.60294L13.0936 3.38159L12.6453 3.16024L11.1111 6.26766L11.5594 6.48901ZM11.4785 10.7487L11.3805 10.2584C9.90592 10.5531 8.38087 10.1019 7.30411 9.05221L6.95509 9.41024L6.60607 9.76827C7.91898 11.0481 9.77851 11.5984 11.5765 11.239L11.4785 10.7487ZM8.99402 15.9968L9.48684 16.0813C9.6589 15.077 10.2649 14.1997 11.1432 13.6832L10.8897 13.2522L10.6363 12.8212C9.50413 13.4869 8.723 14.6179 8.5012 15.9124L8.99402 15.9968Z" fill="#D88835" mask="url(#path-7-outside-4_278_2507)"/>
<mask id="path-9-outside-5_278_2507" maskUnits="userSpaceOnUse" x="0.500854" y="0.817139" width="19" height="18" fill="black">
<rect fill="white" x="0.500854" y="0.817139" width="19" height="18"/>
<path d="M9.09363 3.38159C9.46481 2.62949 10.5369 2.62949 10.9081 3.38159L12.4413 6.48901C12.5887 6.78767 12.8744 6.99483 13.204 7.04272L16.6327 7.54077C17.4625 7.66136 17.7944 8.68088 17.1942 9.26636L14.7128 11.6853C14.4744 11.9177 14.3656 12.2527 14.4218 12.5808L15.0067 15.9968C15.1485 16.8235 14.2813 17.4535 13.5389 17.0632L10.4716 15.4509C10.1769 15.296 9.82489 15.2961 9.53015 15.4509L6.46277 17.0632C5.72043 17.4535 4.85231 16.8234 4.99402 15.9968C5.19095 14.8474 5.88451 13.8433 6.88973 13.2522L10.9677 10.8542C11.3609 10.6229 11.1309 10.0187 10.6835 10.1082L7.47847 10.7487C5.84221 11.0758 4.14992 10.575 2.95509 9.41024L2.8075 9.26636C2.20713 8.68097 2.53828 7.66153 3.36804 7.54077L6.79773 7.04272C7.12722 6.99485 7.41201 6.78753 7.55945 6.48901L9.09363 3.38159Z"/>
</mask>
<path d="M9.09363 3.38159C9.46481 2.62949 10.5369 2.62949 10.9081 3.38159L12.4413 6.48901C12.5887 6.78767 12.8744 6.99483 13.204 7.04272L16.6327 7.54077C17.4625 7.66136 17.7944 8.68088 17.1942 9.26636L14.7128 11.6853C14.4744 11.9177 14.3656 12.2527 14.4218 12.5808L15.0067 15.9968C15.1485 16.8235 14.2813 17.4535 13.5389 17.0632L10.4716 15.4509C10.1769 15.296 9.82489 15.2961 9.53015 15.4509L6.46277 17.0632C5.72043 17.4535 4.85231 16.8234 4.99402 15.9968C5.19095 14.8474 5.88451 13.8433 6.88973 13.2522L10.9677 10.8542C11.3609 10.6229 11.1309 10.0187 10.6835 10.1082L7.47847 10.7487C5.84221 11.0758 4.14992 10.575 2.95509 9.41024L2.8075 9.26636C2.20713 8.68097 2.53828 7.66153 3.36804 7.54077L6.79773 7.04272C7.12722 6.99485 7.41201 6.78753 7.55945 6.48901L9.09363 3.38159Z" fill="#323232"/>
<path d="M9.09363 3.38159L10.4386 4.04564L10.4387 4.04544L9.09363 3.38159ZM10.9081 3.38159L12.2533 2.71788L12.2532 2.71774L10.9081 3.38159ZM12.4413 6.48901L11.0961 7.15272L11.0962 7.15288L12.4413 6.48901ZM13.204 7.04272L12.9883 8.52714L12.9884 8.52715L13.204 7.04272ZM16.6327 7.54077L16.8484 6.05636L16.8483 6.05635L16.6327 7.54077ZM17.1942 9.26636L18.2413 10.3405L18.2417 10.3401L17.1942 9.26636ZM14.7128 11.6853L15.7598 12.7594L15.7598 12.7594L14.7128 11.6853ZM14.4218 12.5808L12.9433 12.8339L12.9433 12.834L14.4218 12.5808ZM15.0067 15.9968L13.5282 16.25L13.5283 16.2504L15.0067 15.9968ZM13.5389 17.0632L14.237 15.7355L14.2368 15.7355L13.5389 17.0632ZM10.4716 15.4509L9.77355 16.7786L9.77365 16.7787L10.4716 15.4509ZM9.53015 15.4509L8.83255 14.123L8.83225 14.1232L9.53015 15.4509ZM6.46277 17.0632L5.76486 15.7355L5.76476 15.7355L6.46277 17.0632ZM4.99402 15.9968L6.47245 16.2503L6.47247 16.2501L4.99402 15.9968ZM10.9677 10.8542L11.728 12.1473L11.7282 12.1471L10.9677 10.8542ZM10.6835 10.1082L10.9775 11.5791L10.9776 11.579L10.6835 10.1082ZM2.8075 9.26636L1.76031 10.3403L1.76044 10.3404L2.8075 9.26636ZM3.36804 7.54077L3.15248 6.05634L3.15202 6.05641L3.36804 7.54077ZM6.79773 7.04272L7.01329 8.52715L7.01343 8.52713L6.79773 7.04272ZM7.55945 6.48901L8.90437 7.15324L8.90445 7.15306L7.55945 6.48901ZM9.09363 3.38159L10.4387 4.04544C10.2597 4.40821 9.74201 4.40821 9.56298 4.04544L10.9081 3.38159L12.2532 2.71774C11.3318 0.850777 8.66993 0.850777 7.74852 2.71774L9.09363 3.38159ZM10.9081 3.38159L9.56291 4.0453L11.0961 7.15272L12.4413 6.48901L13.7865 5.8253L12.2533 2.71788L10.9081 3.38159ZM12.4413 6.48901L11.0962 7.15288C11.4626 7.89528 12.1713 8.40842 12.9883 8.52713L13.204 7.04272L13.4197 5.55831C13.5775 5.58125 13.7148 5.68005 13.7864 5.82515L12.4413 6.48901ZM13.204 7.04272L12.9884 8.52715L16.4171 9.02519L16.6327 7.54077L16.8483 6.05635L13.4196 5.5583L13.204 7.04272ZM16.6327 7.54077L16.417 9.02518C16.018 8.96721 15.8563 8.47599 16.1468 8.19264L17.1942 9.26636L18.2417 10.3401C19.7324 8.88578 18.9071 6.35551 16.8484 6.05636L16.6327 7.54077ZM17.1942 9.26636L16.1472 8.19226L13.6657 10.6112L14.7128 11.6853L15.7598 12.7594L18.2413 10.3405L17.1942 9.26636ZM14.7128 11.6853L13.6658 10.6112C13.0736 11.1883 12.8039 12.0197 12.9433 12.8339L14.4218 12.5808L15.9003 12.3277C15.9273 12.4856 15.8751 12.6471 15.7598 12.7594L14.7128 11.6853ZM14.4218 12.5808L12.9433 12.834L13.5282 16.25L15.0067 15.9968L16.4852 15.7437L15.9002 12.3276L14.4218 12.5808ZM15.0067 15.9968L13.5283 16.2504C13.4599 15.8517 13.8789 15.5473 14.237 15.7355L13.5389 17.0632L12.8409 18.3909C14.6837 19.3598 16.8371 17.7952 16.4851 15.7433L15.0067 15.9968ZM13.5389 17.0632L14.2368 15.7355L11.1695 14.1232L10.4716 15.4509L9.77365 16.7787L12.841 18.391L13.5389 17.0632ZM10.4716 15.4509L11.1696 14.1232C10.4376 13.7384 9.56374 13.7389 8.83255 14.123L9.53015 15.4509L10.2278 16.7788C10.086 16.8533 9.91614 16.8536 9.77355 16.7786L10.4716 15.4509ZM9.53015 15.4509L8.83225 14.1232L5.76486 15.7355L6.46277 17.0632L7.16067 18.391L10.2281 16.7787L9.53015 15.4509ZM6.46277 17.0632L5.76476 15.7355C6.12144 15.548 6.54107 15.85 6.47245 16.2503L4.99402 15.9968L3.51559 15.7434C3.16354 17.7968 5.31941 19.359 7.16078 18.3909L6.46277 17.0632ZM6.88973 13.2522L7.65006 14.5452L11.728 12.1473L10.9677 10.8542L10.2073 9.56123L6.12939 11.9592L6.88973 13.2522ZM10.9677 10.8542L11.7282 12.1471C13.5715 11.0628 12.5029 8.21456 10.3893 8.63728L10.6835 10.1082L10.9776 11.579C9.7588 11.8228 9.1503 10.183 10.2071 9.56135L10.9677 10.8542ZM10.6835 10.1082L10.3895 8.63725L7.18449 9.27781L7.47847 10.7487L7.77246 12.2196L10.9775 11.5791L10.6835 10.1082ZM2.95509 9.41024L4.00215 8.33615L3.85455 8.19227L2.8075 9.26636L1.76044 10.3404L1.90803 10.4843L2.95509 9.41024ZM2.8075 9.26636L3.85468 8.19239C4.14414 8.47464 3.98451 8.96686 3.58406 9.02514L3.36804 7.54077L3.15202 6.05641C1.09205 6.3562 0.270117 8.8873 1.76031 10.3403L2.8075 9.26636ZM3.36804 7.54077L3.58361 9.0252L7.01329 8.52715L6.79773 7.04272L6.58217 5.55829L3.15248 6.05634L3.36804 7.54077ZM6.79773 7.04272L7.01343 8.52713C7.83262 8.4081 8.53895 7.89312 8.90437 7.15324L7.55945 6.48901L6.21453 5.82479C6.28508 5.68195 6.42183 5.58159 6.58203 5.55831L6.79773 7.04272ZM7.55945 6.48901L8.90445 7.15306L10.4386 4.04564L9.09363 3.38159L7.74862 2.71754L6.21444 5.82496L7.55945 6.48901ZM7.47847 10.7487L7.18449 9.27781C6.03333 9.50789 4.84275 9.1556 4.00215 8.33615L2.95509 9.41024L1.90803 10.4843C3.45709 11.9944 5.65109 12.6436 7.77246 12.2196L7.47847 10.7487ZM4.99402 15.9968L6.47247 16.2501C6.59481 15.5362 7.02563 14.9124 7.65006 14.5452L6.88973 13.2522L6.12939 11.9592C4.74338 12.7742 3.78709 14.1587 3.51556 15.7435L4.99402 15.9968Z" fill="#323232" mask="url(#path-9-outside-5_278_2507)"/>
<mask id="path-11-outside-6_278_2507" maskUnits="userSpaceOnUse" x="1.50085" y="1.81714" width="17" height="16" fill="black">
<rect fill="white" x="1.50085" y="1.81714" width="17" height="16"/>
<path d="M9.09363 3.38159C9.46481 2.62949 10.5369 2.62949 10.9081 3.38159L12.4413 6.48901C12.5887 6.78767 12.8744 6.99483 13.204 7.04272L16.6327 7.54077C17.4625 7.66136 17.7944 8.68088 17.1942 9.26636L14.7128 11.6853C14.4744 11.9177 14.3656 12.2527 14.4218 12.5808L15.0067 15.9968C15.1485 16.8235 14.2813 17.4535 13.5389 17.0632L10.4716 15.4509C10.1769 15.296 9.82489 15.2961 9.53015 15.4509L6.46277 17.0632C5.72043 17.4535 4.85231 16.8234 4.99402 15.9968C5.19095 14.8474 5.88451 13.8433 6.88973 13.2522L10.9677 10.8542C11.3609 10.6229 11.1309 10.0187 10.6835 10.1082L7.47847 10.7487C5.84221 11.0758 4.14992 10.575 2.95509 9.41024L2.8075 9.26636C2.20713 8.68097 2.53828 7.66153 3.36804 7.54077L6.79773 7.04272C7.12722 6.99485 7.41201 6.78753 7.55945 6.48901L9.09363 3.38159Z"/>
</mask>
<path d="M9.09363 3.38159C9.46481 2.62949 10.5369 2.62949 10.9081 3.38159L12.4413 6.48901C12.5887 6.78767 12.8744 6.99483 13.204 7.04272L16.6327 7.54077C17.4625 7.66136 17.7944 8.68088 17.1942 9.26636L14.7128 11.6853C14.4744 11.9177 14.3656 12.2527 14.4218 12.5808L15.0067 15.9968C15.1485 16.8235 14.2813 17.4535 13.5389 17.0632L10.4716 15.4509C10.1769 15.296 9.82489 15.2961 9.53015 15.4509L6.46277 17.0632C5.72043 17.4535 4.85231 16.8234 4.99402 15.9968C5.19095 14.8474 5.88451 13.8433 6.88973 13.2522L10.9677 10.8542C11.3609 10.6229 11.1309 10.0187 10.6835 10.1082L7.47847 10.7487C5.84221 11.0758 4.14992 10.575 2.95509 9.41024L2.8075 9.26636C2.20713 8.68097 2.53828 7.66153 3.36804 7.54077L6.79773 7.04272C7.12722 6.99485 7.41201 6.78753 7.55945 6.48901L9.09363 3.38159Z" fill="url(#paint2_linear_278_2507)"/>
<path d="M9.09363 3.38159L9.54196 3.60294L9.542 3.60287L9.09363 3.38159ZM10.9081 3.38159L11.3565 3.16036L11.3564 3.16031L10.9081 3.38159ZM12.4413 6.48901L11.9929 6.71025L11.9929 6.7103L12.4413 6.48901ZM13.204 7.04272L13.1321 7.53753L13.1321 7.53753L13.204 7.04272ZM16.6327 7.54077L16.7046 7.04597L16.7046 7.04596L16.6327 7.54077ZM17.1942 9.26636L17.5432 9.62439L17.5434 9.62426L17.1942 9.26636ZM14.7128 11.6853L15.0618 12.0433L15.0618 12.0433L14.7128 11.6853ZM14.4218 12.5808L13.9289 12.6652L13.9289 12.6652L14.4218 12.5808ZM15.0067 15.9968L14.5139 16.0812L14.5139 16.0813L15.0067 15.9968ZM13.5389 17.0632L13.7716 16.6207L13.7716 16.6206L13.5389 17.0632ZM10.4716 15.4509L10.2389 15.8935L10.2389 15.8935L10.4716 15.4509ZM9.53015 15.4509L9.29762 15.0083L9.29752 15.0083L9.53015 15.4509ZM6.46277 17.0632L6.23013 16.6206L6.2301 16.6207L6.46277 17.0632ZM4.99402 15.9968L5.48683 16.0813L5.48684 16.0813L4.99402 15.9968ZM10.9677 10.8542L11.2211 11.2853L11.2212 11.2852L10.9677 10.8542ZM10.6835 10.1082L10.7815 10.5985L10.7815 10.5984L10.6835 10.1082ZM2.8075 9.26636L2.45843 9.62435L2.45848 9.62439L2.8075 9.26636ZM3.36804 7.54077L3.29619 7.04596L3.29604 7.04598L3.36804 7.54077ZM6.79773 7.04272L6.86958 7.53753L6.86963 7.53753L6.79773 7.04272ZM7.55945 6.48901L8.00775 6.71042L8.00778 6.71036L7.55945 6.48901ZM9.09363 3.38159L9.542 3.60287C9.72977 3.2224 10.2719 3.2224 10.4597 3.60287L10.9081 3.38159L11.3564 3.16031C10.8019 2.03659 9.19985 2.03659 8.64526 3.16031L9.09363 3.38159ZM10.9081 3.38159L10.4597 3.60283L11.9929 6.71025L12.4413 6.48901L12.8897 6.26778L11.3565 3.16036L10.9081 3.38159ZM12.4413 6.48901L11.9929 6.7103C12.2133 7.15687 12.64 7.46603 13.1321 7.53753L13.204 7.04272L13.2759 6.54792C13.1088 6.52364 12.964 6.41846 12.8896 6.26772L12.4413 6.48901ZM13.204 7.04272L13.1321 7.53753L16.5608 8.03558L16.6327 7.54077L16.7046 7.04596L13.2759 6.54792L13.204 7.04272ZM16.6327 7.54077L16.5608 8.03557C16.981 8.09664 17.1484 8.61258 16.8451 8.90845L17.1942 9.26636L17.5434 9.62426C18.4404 8.74918 17.9441 7.22607 16.7046 7.04597L16.6327 7.54077ZM17.1942 9.26636L16.8452 8.90832L14.3638 11.3273L14.7128 11.6853L15.0618 12.0433L17.5432 9.62439L17.1942 9.26636ZM14.7128 11.6853L14.3638 11.3273C14.0075 11.6746 13.845 12.175 13.9289 12.6652L14.4218 12.5808L14.9146 12.4965C14.8861 12.3303 14.9413 12.1608 15.0618 12.0433L14.7128 11.6853ZM14.4218 12.5808L13.9289 12.6652L14.5139 16.0812L15.0067 15.9968L15.4995 15.9124L14.9146 12.4964L14.4218 12.5808ZM15.0067 15.9968L14.5139 16.0813C14.5856 16.4995 14.1472 16.8181 13.7716 16.6207L13.5389 17.0632L13.3063 17.5058C14.4155 18.0889 15.7114 17.1474 15.4995 15.9123L15.0067 15.9968ZM13.5389 17.0632L13.7716 16.6206L10.7042 15.0083L10.4716 15.4509L10.2389 15.8935L13.3063 17.5058L13.5389 17.0632ZM10.4716 15.4509L10.7042 15.0084C10.2638 14.7768 9.73784 14.777 9.29762 15.0083L9.53015 15.4509L9.76269 15.8936C9.91194 15.8152 10.09 15.8152 10.2389 15.8935L10.4716 15.4509ZM9.53015 15.4509L9.29752 15.0083L6.23013 16.6206L6.46277 17.0632L6.6954 17.5058L9.76279 15.8935L9.53015 15.4509ZM6.46277 17.0632L6.2301 16.6207C5.8541 16.8183 5.41523 16.499 5.48683 16.0813L4.99402 15.9968L4.50121 15.9123C4.28938 17.1479 5.58675 18.0887 6.69544 17.5058L6.46277 17.0632ZM6.88973 13.2522L7.14317 13.6832L11.2211 11.2853L10.9677 10.8542L10.7142 10.4232L6.63628 12.8212L6.88973 13.2522ZM10.9677 10.8542L11.2212 11.2852C12.0978 10.7696 11.5882 9.4173 10.5854 9.61786L10.6835 10.1082L10.7815 10.5984C10.772 10.6003 10.7423 10.6 10.712 10.5816C10.6875 10.5667 10.6775 10.5491 10.6735 10.5388C10.6696 10.5285 10.6655 10.5089 10.6738 10.4818C10.684 10.4481 10.7058 10.4282 10.7141 10.4233L10.9677 10.8542ZM10.6835 10.1082L10.5855 9.61785L7.38048 10.2584L7.47847 10.7487L7.57647 11.239L10.7815 10.5985L10.6835 10.1082ZM2.95509 9.41024L3.30411 9.05221L3.15651 8.90833L2.8075 9.26636L2.45848 9.62439L2.60607 9.76827L2.95509 9.41024ZM2.8075 9.26636L3.15656 8.90837C2.8528 8.61219 3.02036 8.09664 3.44005 8.03556L3.36804 7.54077L3.29604 7.04598C2.0562 7.22642 1.56146 8.74974 2.45843 9.62435L2.8075 9.26636ZM3.36804 7.54077L3.4399 8.03558L6.86958 7.53753L6.79773 7.04272L6.72587 6.54791L3.29619 7.04596L3.36804 7.54077ZM6.79773 7.04272L6.86963 7.53753C7.36236 7.46593 7.78766 7.15606 8.00775 6.71042L7.55945 6.48901L7.11114 6.2676C7.03637 6.41901 6.89209 6.52376 6.72583 6.54792L6.79773 7.04272ZM7.55945 6.48901L8.00778 6.71036L9.54196 3.60294L9.09363 3.38159L8.64529 3.16024L7.11111 6.26766L7.55945 6.48901ZM7.47847 10.7487L7.38048 10.2584C5.90592 10.5531 4.38087 10.1019 3.30411 9.05221L2.95509 9.41024L2.60607 9.76827C3.91898 11.0481 5.77851 11.5984 7.57647 11.239L7.47847 10.7487ZM4.99402 15.9968L5.48684 16.0813C5.6589 15.077 6.26488 14.1997 7.14317 13.6832L6.88973 13.2522L6.63628 12.8212C5.50413 13.4869 4.723 14.6179 4.5012 15.9124L4.99402 15.9968Z" fill="#D88835" mask="url(#path-11-outside-6_278_2507)"/>
<defs>
<linearGradient id="paint0_linear_278_2507" x1="20.9166" y1="6.66672" x2="13.4166" y2="14.1667" gradientUnits="userSpaceOnUse">
<stop stop-color="#FECE45"/>
<stop offset="1" stop-color="#FFB728"/>
</linearGradient>
<linearGradient id="paint1_linear_278_2507" x1="16.9166" y1="6.66672" x2="9.41663" y2="14.1667" gradientUnits="userSpaceOnUse">
<stop stop-color="#FECE45"/>
<stop offset="1" stop-color="#FFB728"/>
</linearGradient>
<linearGradient id="paint2_linear_278_2507" x1="12.9166" y1="6.66672" x2="5.41663" y2="14.1667" gradientUnits="userSpaceOnUse">
<stop stop-color="#FECE45"/>
<stop offset="1" stop-color="#FFB728"/>
</linearGradient>
</defs>
</svg>
