<svg width="28" height="28" viewBox="0 0 28 28" fill="none" xmlns="http://www.w3.org/2000/svg">
    <mask id="path-1-outside-1_278_1731" maskUnits="userSpaceOnUse" x="2.50073" y="2.94385" width="23" height="22"
          fill="black">
        <rect fill="white" x="2.50073" y="2.94385" width="23" height="22"/>
        <path d="M12.7302 4.73389C13.2499 3.68095 14.7516 3.68095 15.2712 4.73389L17.4187 9.08447C17.6251 9.50241 18.0238 9.79184 18.4851 9.85889L23.2859 10.5571C24.4479 10.726 24.9119 12.1535 24.071 12.9731L20.5974 16.3599C20.2635 16.6853 20.1114 17.1542 20.1902 17.6138L21.0095 22.395C21.208 23.5522 19.9941 24.4351 18.9548 23.8892L14.6599 21.6313C14.2472 21.4144 13.7542 21.4144 13.3416 21.6313L9.04761 23.8892C8.0083 24.4356 6.79345 23.5523 6.99194 22.395C7.26753 20.7867 8.23795 19.3817 9.64446 18.5545L15.3552 15.1958C15.9058 14.8719 15.5831 14.0266 14.9568 14.1519L10.4708 15.0488C8.17983 15.5069 5.81027 14.8058 4.13735 13.1749L3.93042 12.9731C3.08967 12.1535 3.55363 10.726 4.71558 10.5571L9.51636 9.85889C9.97775 9.79184 10.3774 9.50255 10.5837 9.08447L12.7302 4.73389Z"/>
    </mask>
    <path d="M12.7302 4.73389C13.2499 3.68095 14.7516 3.68095 15.2712 4.73389L17.4187 9.08447C17.6251 9.50241 18.0238 9.79184 18.4851 9.85889L23.2859 10.5571C24.4479 10.726 24.9119 12.1535 24.071 12.9731L20.5974 16.3599C20.2635 16.6853 20.1114 17.1542 20.1902 17.6138L21.0095 22.395C21.208 23.5522 19.9941 24.4351 18.9548 23.8892L14.6599 21.6313C14.2472 21.4144 13.7542 21.4144 13.3416 21.6313L9.04761 23.8892C8.0083 24.4356 6.79345 23.5523 6.99194 22.395C7.26753 20.7867 8.23795 19.3817 9.64446 18.5545L15.3552 15.1958C15.9058 14.8719 15.5831 14.0266 14.9568 14.1519L10.4708 15.0488C8.17983 15.5069 5.81027 14.8058 4.13735 13.1749L3.93042 12.9731C3.08967 12.1535 3.55363 10.726 4.71558 10.5571L9.51636 9.85889C9.97775 9.79184 10.3774 9.50255 10.5837 9.08447L12.7302 4.73389Z"
          fill="url(#paint0_linear_278_1731)"/>
    <path d="M12.7302 4.73389L12.1025 4.42409L12.1025 4.42417L12.7302 4.73389ZM15.2712 4.73389L14.6435 5.04368L14.6435 5.04372L15.2712 4.73389ZM17.4187 9.08447L16.791 9.39431L16.7911 9.39442L17.4187 9.08447ZM18.4851 9.85889L18.5859 9.16617L18.5858 9.16617L18.4851 9.85889ZM23.2859 10.5571L23.1851 11.2498L23.1852 11.2499L23.2859 10.5571ZM24.071 12.9731L23.5824 12.4719L23.5824 12.4719L24.071 12.9731ZM20.5974 16.3599L21.086 16.8611L21.0861 16.8611L20.5974 16.3599ZM20.1902 17.6138L20.8801 17.4955L20.8801 17.4954L20.1902 17.6138ZM21.0095 22.395L20.3196 22.5133L20.3196 22.5134L21.0095 22.395ZM18.9548 23.8892L18.6291 24.5088L18.6293 24.5089L18.9548 23.8892ZM14.6599 21.6313L14.9856 21.0117L14.9856 21.0117L14.6599 21.6313ZM13.3416 21.6313L13.0158 21.0118L13.0158 21.0118L13.3416 21.6313ZM9.04761 23.8892L9.37335 24.5088L9.37339 24.5087L9.04761 23.8892ZM6.99194 22.395L7.68187 22.5134L7.68189 22.5132L6.99194 22.395ZM15.3552 15.1958L15.7101 15.7992L15.7101 15.7992L15.3552 15.1958ZM14.9568 14.1519L15.094 14.8383L15.0941 14.8383L14.9568 14.1519ZM3.93042 12.9731L4.41907 12.4719L4.41905 12.4719L3.93042 12.9731ZM4.71558 10.5571L4.81624 11.2499L4.81633 11.2498L4.71558 10.5571ZM9.51636 9.85889L9.4157 9.16616L9.41561 9.16618L9.51636 9.85889ZM10.5837 9.08447L11.2114 9.39431L11.2115 9.39419L10.5837 9.08447ZM9.64446 18.5545L9.28959 17.9511L9.64446 18.5545ZM12.7302 4.73389L13.3579 5.04368C13.6208 4.51102 14.3806 4.51102 14.6435 5.04368L15.2712 4.73389L15.899 4.42409C15.1225 2.85088 12.8789 2.85088 12.1025 4.42409L12.7302 4.73389ZM15.2712 4.73389L14.6435 5.04372L16.791 9.39431L17.4187 9.08447L18.0464 8.77464L15.8989 4.42405L15.2712 4.73389ZM17.4187 9.08447L16.7911 9.39442C17.0995 10.019 17.6954 10.4515 18.3844 10.5516L18.4851 9.85889L18.5858 9.16617C18.3522 9.13222 18.1507 8.98577 18.0463 8.77452L17.4187 9.08447ZM18.4851 9.85889L18.3844 10.5516L23.1851 11.2498L23.2859 10.5571L23.3866 9.86442L18.5859 9.16618L18.4851 9.85889ZM23.2859 10.5571L23.1852 11.2499C23.7732 11.3353 24.0077 12.0574 23.5824 12.4719L24.071 12.9731L24.5597 13.4744C25.816 12.2497 25.1225 10.1167 23.3865 9.8644L23.2859 10.5571ZM24.071 12.9731L23.5824 12.4719L20.1087 15.8587L20.5974 16.3599L21.0861 16.8611L24.5597 13.4743L24.071 12.9731ZM20.5974 16.3599L20.1088 15.8586C19.6098 16.345 19.3825 17.0457 19.5003 17.7321L20.1902 17.6138L20.8801 17.4954C20.8402 17.2627 20.9173 17.0256 21.086 16.8611L20.5974 16.3599ZM20.1902 17.6138L19.5002 17.732L20.3196 22.5133L21.0095 22.395L21.6995 22.2768L20.8801 17.4955L20.1902 17.6138ZM21.0095 22.395L20.3196 22.5134C20.4201 23.0994 19.8055 23.5453 19.2804 23.2695L18.9548 23.8892L18.6293 24.5089C20.1826 25.3249 21.9959 24.0049 21.6994 22.2767L21.0095 22.395ZM18.9548 23.8892L19.2806 23.2696L14.9856 21.0117L14.6599 21.6313L14.3342 22.2509L18.6291 24.5088L18.9548 23.8892ZM14.6599 21.6313L14.9856 21.0117C14.3691 20.6877 13.6325 20.6876 13.0158 21.0118L13.3416 21.6313L13.6673 22.2509C13.876 22.1412 14.1254 22.1412 14.3342 22.251L14.6599 21.6313ZM13.3416 21.6313L13.0158 21.0118L8.72183 23.2696L9.04761 23.8892L9.37339 24.5087L13.6673 22.2509L13.3416 21.6313ZM9.04761 23.8892L8.72187 23.2696C8.19656 23.5457 7.58137 23.0993 7.68187 22.5134L6.99194 22.395L6.30202 22.2767C6.00554 24.0053 7.82004 25.3254 9.37335 24.5088L9.04761 23.8892ZM9.64446 18.5545L9.99932 19.1578L15.7101 15.7992L15.3552 15.1958L15.0004 14.5924L9.28959 17.9511L9.64446 18.5545ZM15.3552 15.1958L15.7101 15.7992C16.941 15.0751 16.2193 13.1855 14.8195 13.4654L14.9568 14.1519L15.0941 14.8383C15.0809 14.8409 15.0394 14.8405 14.9971 14.8147C14.9629 14.794 14.9489 14.7695 14.9434 14.755C14.9378 14.7405 14.932 14.7129 14.9436 14.6746C14.9581 14.6272 14.9887 14.5993 15.0003 14.5924L15.3552 15.1958ZM14.9568 14.1519L14.8195 13.4654L10.3336 14.3624L10.4708 15.0488L10.6081 15.7352L15.094 14.8383L14.9568 14.1519ZM4.13735 13.1749L4.62599 12.6737L4.41907 12.4719L3.93042 12.9731L3.44177 13.4744L3.6487 13.6761L4.13735 13.1749ZM3.93042 12.9731L4.41905 12.4719C3.9938 12.0574 4.22834 11.3353 4.81624 11.2499L4.71558 10.5571L4.61491 9.86441C2.87892 10.1167 2.18554 12.2497 3.44179 13.4744L3.93042 12.9731ZM4.71558 10.5571L4.81633 11.2498L9.61711 10.5516L9.51636 9.85889L9.41561 9.16618L4.61483 9.86442L4.71558 10.5571ZM9.51636 9.85889L9.61702 10.5516C10.3054 10.4516 10.9027 10.0198 11.2114 9.39431L10.5837 9.08447L9.95604 8.77464C9.85208 8.98527 9.65008 9.1321 9.4157 9.16616L9.51636 9.85889ZM10.5837 9.08447L11.2115 9.39419L13.358 5.04361L12.7302 4.73389L12.1025 4.42417L9.95599 8.77475L10.5837 9.08447ZM10.4708 15.0488L10.3336 14.3624C8.26898 14.7752 6.13359 14.1434 4.62599 12.6737L4.13735 13.1749L3.6487 13.6761C5.48694 15.4682 8.09067 16.2386 10.6081 15.7352L10.4708 15.0488ZM6.99194 22.395L7.68189 22.5132C7.92266 21.1081 8.77049 19.8805 9.99932 19.1578L9.64446 18.5545L9.28959 17.9511C7.70541 18.8828 6.61239 20.4653 6.302 22.2768L6.99194 22.395Z"
          fill="#D88835" mask="url(#path-1-outside-1_278_1731)"/>
    <defs>
        <linearGradient id="paint0_linear_278_1731" x1="18.0831" y1="9.33324" x2="7.5832" y2="19.8335"
                        gradientUnits="userSpaceOnUse">
            <stop stop-color="#FECE45"/>
            <stop offset="1" stop-color="#FFB728"/>
        </linearGradient>
    </defs>
</svg>
